<?xml version="1.0" encoding="UTF-8"?>
<svg width="20px" height="18px" viewBox="0 0 20 18" version="1.1" xmlns="http://www.w3.org/2000/svg" xmlns:xlink="http://www.w3.org/1999/xlink">
    <!-- Generator: Sketch 52.5 (67469) - http://www.bohemiancoding.com/sketch -->
    <title>Path</title>
    <desc>Created with Sketch.</desc>
    <g id="V3" stroke="none" stroke-width="1" fill="none" fill-rule="evenodd">
        <g id="-1440---Desktop---Home---V2" transform="translate(-459.000000, -984.000000)" fill="#FEC700">
            <g id="Slide-2" transform="translate(457.000000, 910.000000)">
                <g id="General">
                    <g id="Group-13" transform="translate(2.000000, 74.000000)">
                        <path d="M10.5269629,0.565069258 L12.6924797,4.86654488 C12.8430686,5.16571651 13.1342339,5.37301654 13.4710564,5.42091541 L18.3135316,6.11073767 C19.1617958,6.23166269 19.5002204,7.25324352 18.8866506,7.83941576 L15.3826547,11.1876253 C15.1391492,11.4204453 15.0278095,11.75613 15.0854818,12.0847476 L15.9125194,16.8126017 C16.0575013,17.640624 15.1707889,18.2719468 14.4122372,17.8812962 L10.0812037,15.6492873 C9.78002585,15.4942049 9.41997415,15.4942049 9.1187963,15.6492873 L4.78776279,17.8812962 C4.02921114,18.2723394 3.14249872,17.640624 3.2874806,16.8126017 L4.11451817,12.0847476 C4.17219052,11.75613 4.06085084,11.4204453 3.81734535,11.1876253 L0.313349395,7.83941576 C-0.300220361,7.2528509 0.0382042107,6.23127007 0.886468404,6.11073767 L5.72894355,5.42091541 C6.06576611,5.37301654 6.3569314,5.16571651 6.50752032,4.86654488 L8.67303707,0.565069258 C9.05191239,-0.188356419 10.1476871,-0.188356419 10.5269629,0.565069258 Z" id="Path"></path>
                    </g>
                </g>
            </g>
        </g>
    </g>
</svg>